PathFileType	4	(X/Y/Z)	s11c0402.trc
DataRate	CameraRate	NumFrames	NumMarkers	Units	OrigDataRate	OrigDataStartFrame	OrigNumFrames
200	200	4	48	mm	200	0	2000
Frame#	Time	racr			lacr			c7			jug			rlel			rdr			llel			ldr			s2			lic			ric			lasi			rasi			rpsi			lpsi			rgt			lgt			rth1			rth2			rth3			rth4			rlfc			rmfc			rsh1			rsh2			rsh3			rsh4			rlmal			rcal			rtoe			rmt5			lth1			lth2			lth4			lth3			llfc			lmfc			llmal			lcal			lmt5			lsh1			lsh2			lsh3			lsh4			ltoe			SBIKE			LBIKE			RBIKE			
		X1	Y1	Z1	X2	Y2	Z2	X3	Y3	Z3	X4	Y4	Z4	X5	Y5	Z5	X6	Y6	Z6	X7	Y7	Z7	X8	Y8	Z8	X9	Y9	Z9	X10	Y10	Z10	X11	Y11	Z11	X12	Y12	Z12	X13	Y13	Z13	X14	Y14	Z14	X15	Y15	Z15	X16	Y16	Z16	X17	Y17	Z17	X18	Y18	Z18	X19	Y19	Z19	X20	Y20	Z20	X21	Y21	Z21	X22	Y22	Z22	X23	Y23	Z23	X24	Y24	Z24	X25	Y25	Z25	X26	Y26	Z26	X27	Y27	Z27	X28	Y28	Z28	X29	Y29	Z29	X30	Y30	Z30	X31	Y31	Z31	X32	Y32	Z32	X33	Y33	Z33	X34	Y34	Z34	X35	Y35	Z35	X36	Y36	Z36	X37	Y37	Z37	X38	Y38	Z38	X39	Y39	Z39	X40	Y40	Z40	X41	Y41	Z41	X42	Y42	Z42	X43	Y43	Z43	X44	Y44	Z44	X45	Y45	Z45	X46	Y46	Z46	X47	Y47	Z47	X48	Y48	Z48	
0	0.0000	427.452525	1428.723885	-92.753484	415.596118	1452.132735	-417.303788	323.293751	1554.522892	-253.800697	377.991013	1386.388133	-263.098019	552.068404	1177.081973	-30.111761	762.964329	957.654496	-66.662543	523.152148	1170.004516	-495.835640	761.152240	948.820070	-473.094321	-156.084013	1189.214993	-242.516706	55.017629	1231.393446	-448.997463	73.217820	1207.103314	-54.870620	91.975432	1155.077768	-417.719536	110.937391	1144.529466	-89.259697	-118.328146	1262.877050	-186.735684	-126.642734	1259.539734	-283.254875	23.622888	1047.280536	-39.829438	-14.735516	1102.586762	-467.844875	122.881363	941.385794	-42.829726	196.071861	890.128420	-53.055909	234.823625	813.298589	-70.841928	224.207397	915.814534	-62.671286	299.320649	727.943659	-90.238048	294.341325	711.167169	-215.777979	205.730755	597.898571	-75.692562	172.389824	517.813050	-94.006625	105.161161	462.517903	-94.179050	192.448623	507.455824	-126.922530	13.449815	365.388930	-105.441168	-54.335620	366.112539	-151.740993	204.927026	245.062449	-146.937994	130.927993	242.205741	-77.274899	118.902986	1034.345936	-490.056331	203.196524	1018.999119	-492.376838	220.599896	1050.368598	-481.851018	270.780415	959.576500	-496.082970	393.486734	881.613088	-476.749508	0.000000	0.000000	-0.000000	248.925773	477.563273	-422.867698	197.404341	426.669613	-382.132357	401.348691	404.405289	-457.137985	351.504052	760.644751	-486.441571	349.585814	677.445696	-466.309860	304.311323	601.716288	-454.552785	380.343177	672.499688	-443.592662	494.779291	441.298583	-392.217076	-215.975989	952.706970	-256.659174	-17.963230	80.904176	-460.686243	-17.870471	80.854137	-62.033464	
1	0.0050	427.299362	1428.739530	-92.917021	415.253550	1452.119414	-417.206509	322.934118	1554.664899	-253.823505	377.569204	1386.549216	-263.179416	552.045538	1177.112702	-30.290130	762.945182	957.640090	-66.798313	523.135607	1169.999703	-495.545834	761.214787	948.812597	-473.169376	-156.302396	1189.144575	-242.410547	54.762664	1231.416403	-448.893816	73.083805	1207.130640	-54.841796	91.822790	1155.174712	-417.680033	110.860107	1144.615534	-89.257459	-118.485123	1262.760446	-186.641717	-126.846818	1259.495830	-283.175705	23.603276	1047.206850	-39.817128	-14.806483	1102.637863	-467.823782	119.947437	939.620791	-42.539236	196.050486	890.070378	-53.055193	234.773486	813.219812	-70.836547	224.171264	915.819949	-62.642287	299.291301	727.859559	-90.236181	294.310571	711.052427	-215.810541	205.749264	597.773335	-75.690276	172.405275	517.746025	-94.009041	105.197855	462.420881	-94.155462	192.464071	507.339114	-126.917146	13.496684	365.252224	-105.437507	-54.249194	365.977971	-151.753951	205.015835	244.915669	-146.914263	131.067504	242.002165	-77.323681	118.881066	1034.441850	-490.031819	203.176254	1019.133268	-492.361635	220.561118	1050.501803	-481.810057	270.765581	959.776056	-496.124583	393.479823	881.782906	-476.727536	0.000000	0.000000	-0.000000	248.878870	477.797536	-422.873374	197.337048	426.910787	-382.108743	401.296984	404.526390	-457.136119	351.495402	760.824595	-486.432086	349.558832	677.640705	-466.343193	304.280849	601.928513	-454.517342	380.318909	672.694017	-443.577571	494.727865	441.446821	-392.229859	-215.991404	952.697554	-256.663661	-17.973945	80.949958	-460.682450	-17.861514	80.857077	-62.030655	
2	0.0100	427.110188	1428.733545	-93.087107	414.986895	1452.153641	-417.261185	322.607364	1554.872971	-253.873409	377.172294	1386.763331	-263.246171	552.037328	1177.177906	-30.521621	762.914653	957.613409	-66.969767	523.088660	1169.980434	-495.304102	761.262232	948.810674	-473.194830	-156.482635	1189.024802	-242.281574	54.488728	1231.457608	-448.807559	72.940563	1207.146422	-54.798305	91.730737	1155.429245	-417.810847	110.785355	1144.695230	-89.261694	-118.680037	1262.595925	-186.532009	-127.029159	1259.444637	-283.087058	23.561578	1047.117849	-39.786644	-14.896665	1102.658219	-467.798267	119.936150	939.561663	-42.501213	196.035689	890.034585	-53.028574	234.732843	813.163242	-70.800077	224.116007	915.812609	-62.596056	299.222397	727.786984	-90.203525	294.279924	711.005472	-215.832693	205.733323	597.693121	-75.677434	172.448564	517.636375	-94.000725	105.274258	462.231179	-94.173562	192.468654	507.241737	-126.890297	13.592363	365.099472	-105.415307	-54.148258	365.785752	-151.742410	205.106600	244.718517	-146.946143	131.168482	241.837843	-77.323827	118.826623	1034.556808	-490.006848	203.130580	1019.344266	-492.328121	220.505948	1050.675064	-481.764222	270.749422	959.964132	-496.100307	393.461116	881.970822	-476.730766	413.620790	882.616348	-350.864760	248.839231	478.025105	-422.856420	197.268949	427.108511	-382.116858	401.229031	404.711218	-457.132220	351.483474	760.998406	-486.419878	349.542329	677.869931	-466.332491	304.258387	602.196699	-454.500974	380.279638	672.949158	-443.573897	494.685277	441.581468	-392.229124	-215.997638	952.701083	-256.649792	-17.978336	80.941080	-460.675424	-17.870195	80.857887	-62.040831	
3	0.0150	426.898708	1428.778592	-93.289186	415.169063	1452.832473	-418.242086	322.234767	1555.051269	-253.953981	376.789958	1386.984106	-263.259936	552.019067	1177.225699	-30.774420	762.882370	957.601702	-67.152619	523.008838	1169.956722	-495.075801	761.382926	948.723778	-473.105245	-156.653382	1188.762315	-242.156269	54.238003	1231.546058	-448.787833	72.775792	1207.173302	-54.757522	91.529854	1155.535432	-417.713262	110.501820	1144.890966	-89.313389	-118.908944	1262.439622	-186.411435	-127.271235	1259.312397	-282.894504	23.544165	1047.018088	-39.760827	-14.945145	1102.810562	-467.798420	122.651563	941.239449	-42.807972	195.982377	889.960507	-53.006587	234.691085	813.116509	-70.794514	222.223865	915.012265	-62.795992	299.159475	727.726170	-90.193061	294.269895	710.931233	-215.855451	205.724121	597.593992	-75.662597	172.668417	517.514020	-93.825823	105.300953	462.079689	-94.182395	192.217714	507.278911	-126.965560	13.699071	365.036219	-105.573328	-54.066663	365.577712	-151.742899	205.185004	244.537859	-146.952874	131.235228	241.657952	-77.333634	118.751437	1034.699937	-489.989425	203.068101	1019.512484	-492.309667	220.494794	1050.606031	-481.409625	270.711995	960.131689	-496.045354	393.442492	882.176753	-476.714425	413.589204	882.758167	-350.855070	248.795638	478.234969	-422.824272	196.809849	427.438122	-382.491544	401.154510	404.908004	-457.146754	351.460926	761.216641	-486.410535	349.417988	677.576715	-466.654613	304.130797	602.425073	-454.641609	379.692375	673.578219	-446.287010	494.621608	441.707825	-392.216731	-267.545450	931.703434	-272.737350	-17.982421	80.944890	-460.702055	-17.857262	80.866848	-62.041795	
